<svg xmlns="http://www.w3.org/2000/svg" xmlns:xlink="http://www.w3.org/1999/xlink" width="800" zoomAndPan="magnify" viewBox="0 0 600 225" height="300" preserveAspectRatio="xMidYMid meet" version="1.0"><defs><clipPath id="c27ce09e63"><path d="M 9.214844 0 L 225.214844 0 L 225.214844 216 L 9.214844 216 Z M 9.214844 0 " clip-rule="nonzero"/></clipPath><clipPath id="69ff3f6960"><path d="M 117.371094 0 C 57.636719 0 9.214844 48.425781 9.214844 108.160156 C 9.214844 167.890625 57.636719 216.316406 117.371094 216.316406 C 177.105469 216.316406 225.53125 167.890625 225.53125 108.160156 C 225.53125 48.425781 177.105469 0 117.371094 0 Z M 117.371094 0 " clip-rule="nonzero"/></clipPath><clipPath id="c83c8b89dd"><path d="M 121.613281 0 L 337.613281 0 L 337.613281 216 L 121.613281 216 Z M 121.613281 0 " clip-rule="nonzero"/></clipPath><clipPath id="a2153d2f75"><path d="M 229.773438 0 C 170.039062 0 121.613281 48.425781 121.613281 108.160156 C 121.613281 167.890625 170.039062 216.316406 229.773438 216.316406 C 289.507812 216.316406 337.929688 167.890625 337.929688 108.160156 C 337.929688 48.425781 289.507812 0 229.773438 0 Z M 229.773438 0 " clip-rule="nonzero"/></clipPath><clipPath id="9658521797"><path d="M 254.609375 0 L 470.609375 0 L 470.609375 216 L 254.609375 216 Z M 254.609375 0 " clip-rule="nonzero"/></clipPath><clipPath id="cab49fd882"><path d="M 362.769531 0 C 303.035156 0 254.609375 48.425781 254.609375 108.160156 C 254.609375 167.890625 303.035156 216.316406 362.769531 216.316406 C 422.503906 216.316406 470.925781 167.890625 470.925781 108.160156 C 470.925781 48.425781 422.503906 0 362.769531 0 Z M 362.769531 0 " clip-rule="nonzero"/></clipPath><clipPath id="d031bd62ff"><path d="M 362.769531 0 L 579.089844 0 L 579.089844 216.320312 L 362.769531 216.320312 Z M 362.769531 0 " clip-rule="nonzero"/></clipPath><clipPath id="41371daccd"><path d="M 470.929688 0 C 411.195312 0 362.769531 48.425781 362.769531 108.160156 C 362.769531 167.894531 411.195312 216.320312 470.929688 216.320312 C 530.667969 216.320312 579.089844 167.894531 579.089844 108.160156 C 579.089844 48.425781 530.667969 0 470.929688 0 Z M 470.929688 0 " clip-rule="nonzero"/></clipPath><clipPath id="d4903d5a70"><path d="M 362.769531 0 L 578.769531 0 L 578.769531 216 L 362.769531 216 Z M 362.769531 0 " clip-rule="nonzero"/></clipPath><clipPath id="c34b5d7e7a"><path d="M 470.929688 0 C 411.195312 0 362.769531 48.425781 362.769531 108.160156 C 362.769531 167.890625 411.195312 216.316406 470.929688 216.316406 C 530.664062 216.316406 579.085938 167.890625 579.085938 108.160156 C 579.085938 48.425781 530.664062 0 470.929688 0 Z M 470.929688 0 " clip-rule="nonzero"/></clipPath></defs><g clip-path="url(#c27ce09e63)"><g clip-path="url(#69ff3f6960)"><path stroke-linecap="butt" transform="matrix(0.75, 0, 0, 0.75, 9.214253, 0.00001)" fill="none" stroke-linejoin="miter" d="M 144.209127 -0.0000133333 C 64.56329 -0.0000133333 0.000787485 64.567698 0.000787485 144.213534 C 0.000787485 223.854163 64.56329 288.421874 144.209127 288.421874 C 223.854963 288.421874 288.422675 223.854163 288.422675 144.213534 C 288.422675 64.567698 223.854963 -0.0000133333 144.209127 -0.0000133333 Z M 144.209127 -0.0000133333 " stroke="#ffffff" stroke-width="8" stroke-opacity="1" stroke-miterlimit="4"/></g></g><g clip-path="url(#c83c8b89dd)"><g clip-path="url(#a2153d2f75)"><path stroke-linecap="butt" transform="matrix(0.75, 0, 0, 0.75, 121.615001, 0.00001)" fill="none" stroke-linejoin="miter" d="M 144.211255 -0.0000133333 C 64.565419 -0.0000133333 -0.00229238 64.567698 -0.00229238 144.213534 C -0.00229238 223.854163 64.565419 288.421874 144.211255 288.421874 C 223.857092 288.421874 288.419595 223.854163 288.419595 144.213534 C 288.419595 64.567698 223.857092 -0.0000133333 144.211255 -0.0000133333 Z M 144.211255 -0.0000133333 " stroke="#ffffff" stroke-width="8" stroke-opacity="1" stroke-miterlimit="4"/></g></g><g clip-path="url(#9658521797)"><g clip-path="url(#cab49fd882)"><path stroke-linecap="butt" transform="matrix(0.75, 0, 0, 0.75, 254.610781, 0.00001)" fill="none" stroke-linejoin="miter" d="M 144.211672 -0.0000133333 C 64.565836 -0.0000133333 -0.00187519 64.567698 -0.00187519 144.213534 C -0.00187519 223.854163 64.565836 288.421874 144.211672 288.421874 C 223.857509 288.421874 288.420012 223.854163 288.420012 144.213534 C 288.420012 64.567698 223.857509 -0.0000133333 144.211672 -0.0000133333 Z M 144.211672 -0.0000133333 " stroke="#ffffff" stroke-width="8" stroke-opacity="1" stroke-miterlimit="4"/></g></g><g clip-path="url(#d031bd62ff)"><g clip-path="url(#41371daccd)"><path fill="#ffffff" d="M 362.769531 0 L 579.089844 0 L 579.089844 216.320312 L 362.769531 216.320312 Z M 362.769531 0 " fill-opacity="1" fill-rule="nonzero"/></g></g><g clip-path="url(#d4903d5a70)"><g clip-path="url(#c34b5d7e7a)"><path stroke-linecap="butt" transform="matrix(0.75, 0, 0, 0.75, 362.770972, 0.00001)" fill="none" stroke-linejoin="miter" d="M 144.211627 -0.0000133333 C 64.56579 -0.0000133333 -0.00192111 64.567698 -0.00192111 144.213534 C -0.00192111 223.854163 64.56579 288.421874 144.211627 288.421874 C 223.857463 288.421874 288.419966 223.854163 288.419966 144.213534 C 288.419966 64.567698 223.857463 -0.0000133333 144.211627 -0.0000133333 Z M 144.211627 -0.0000133333 " stroke="#ffffff" stroke-width="4" stroke-opacity="1" stroke-miterlimit="4"/></g></g></svg>